<mxfile host="app.diagrams.net" modified="2023-10-14T01:28:56.447Z" agent="Mozilla/5.0 (Windows NT 10.0; Win64; x64) AppleWebKit/537.36 (KHTML, like Gecko) Chrome/117.0.0.0 Safari/537.36" etag="PetyeQDaMWFCSzXJW7oG" version="22.0.4" type="device">
  <diagram id="R2lEEEUBdFMjLlhIrx00" name="Page-1">
    <mxGraphModel dx="683" dy="376" grid="1" gridSize="10" guides="1" tooltips="1" connect="1" arrows="1" fold="1" page="1" pageScale="1" pageWidth="850" pageHeight="1100" math="0" shadow="0" extFonts="Permanent Marker^https://fonts.googleapis.com/css?family=Permanent+Marker">
      <root>
        <mxCell id="0" />
        <mxCell id="1" parent="0" />
        <mxCell id="0qO8Ju_JYuUimtJmOxLD-1" value="User" style="whiteSpace=wrap;html=1;align=center;" parent="1" vertex="1">
          <mxGeometry x="370" y="300" width="100" height="40" as="geometry" />
        </mxCell>
        <mxCell id="0qO8Ju_JYuUimtJmOxLD-2" value="&lt;u&gt;username&lt;/u&gt;" style="ellipse;whiteSpace=wrap;html=1;align=center;" parent="1" vertex="1">
          <mxGeometry x="270" y="230" width="100" height="40" as="geometry" />
        </mxCell>
        <mxCell id="0qO8Ju_JYuUimtJmOxLD-5" value="password" style="ellipse;whiteSpace=wrap;html=1;align=center;" parent="1" vertex="1">
          <mxGeometry x="370" y="190" width="100" height="40" as="geometry" />
        </mxCell>
        <mxCell id="0qO8Ju_JYuUimtJmOxLD-6" value="role" style="ellipse;shape=doubleEllipse;margin=3;whiteSpace=wrap;html=1;align=center;" parent="1" vertex="1">
          <mxGeometry x="470" y="230" width="100" height="40" as="geometry" />
        </mxCell>
        <mxCell id="0qO8Ju_JYuUimtJmOxLD-8" value="" style="endArrow=none;html=1;rounded=0;entryX=0;entryY=1;entryDx=0;entryDy=0;exitX=1;exitY=0;exitDx=0;exitDy=0;" parent="1" source="0qO8Ju_JYuUimtJmOxLD-1" target="0qO8Ju_JYuUimtJmOxLD-6" edge="1">
          <mxGeometry width="50" height="50" relative="1" as="geometry">
            <mxPoint x="400" y="330" as="sourcePoint" />
            <mxPoint x="450" y="280" as="targetPoint" />
          </mxGeometry>
        </mxCell>
        <mxCell id="0qO8Ju_JYuUimtJmOxLD-9" value="" style="endArrow=none;html=1;rounded=0;entryX=0.5;entryY=1;entryDx=0;entryDy=0;exitX=0.5;exitY=0;exitDx=0;exitDy=0;" parent="1" source="0qO8Ju_JYuUimtJmOxLD-1" target="0qO8Ju_JYuUimtJmOxLD-5" edge="1">
          <mxGeometry width="50" height="50" relative="1" as="geometry">
            <mxPoint x="400" y="330" as="sourcePoint" />
            <mxPoint x="450" y="280" as="targetPoint" />
          </mxGeometry>
        </mxCell>
        <mxCell id="0qO8Ju_JYuUimtJmOxLD-10" value="" style="endArrow=none;html=1;rounded=0;entryX=1;entryY=1;entryDx=0;entryDy=0;exitX=0;exitY=0;exitDx=0;exitDy=0;" parent="1" source="0qO8Ju_JYuUimtJmOxLD-1" target="0qO8Ju_JYuUimtJmOxLD-2" edge="1">
          <mxGeometry width="50" height="50" relative="1" as="geometry">
            <mxPoint x="400" y="330" as="sourcePoint" />
            <mxPoint x="450" y="280" as="targetPoint" />
          </mxGeometry>
        </mxCell>
        <mxCell id="S4k3JVe0y4lSv8z0l-nM-1" value="" style="shape=table;startSize=0;container=1;collapsible=0;childLayout=tableLayout;fontSize=16;" vertex="1" parent="1">
          <mxGeometry x="676" y="160" width="443" height="40" as="geometry" />
        </mxCell>
        <mxCell id="S4k3JVe0y4lSv8z0l-nM-2" value="" style="shape=tableRow;horizontal=0;startSize=0;swimlaneHead=0;swimlaneBody=0;strokeColor=inherit;top=0;left=0;bottom=0;right=0;collapsible=0;dropTarget=0;fillColor=none;points=[[0,0.5],[1,0.5]];portConstraint=eastwest;fontSize=16;" vertex="1" parent="S4k3JVe0y4lSv8z0l-nM-1">
          <mxGeometry width="443" height="40" as="geometry" />
        </mxCell>
        <mxCell id="S4k3JVe0y4lSv8z0l-nM-3" value="&lt;u&gt;username&lt;/u&gt;" style="shape=partialRectangle;html=1;whiteSpace=wrap;connectable=0;strokeColor=inherit;overflow=hidden;fillColor=none;top=0;left=0;bottom=0;right=0;pointerEvents=1;fontSize=16;" vertex="1" parent="S4k3JVe0y4lSv8z0l-nM-2">
          <mxGeometry width="132" height="40" as="geometry">
            <mxRectangle width="132" height="40" as="alternateBounds" />
          </mxGeometry>
        </mxCell>
        <mxCell id="S4k3JVe0y4lSv8z0l-nM-4" value="password" style="shape=partialRectangle;html=1;whiteSpace=wrap;connectable=0;strokeColor=inherit;overflow=hidden;fillColor=none;top=0;left=0;bottom=0;right=0;pointerEvents=1;fontSize=16;" vertex="1" parent="S4k3JVe0y4lSv8z0l-nM-2">
          <mxGeometry x="132" width="140" height="40" as="geometry">
            <mxRectangle width="140" height="40" as="alternateBounds" />
          </mxGeometry>
        </mxCell>
        <mxCell id="S4k3JVe0y4lSv8z0l-nM-5" value="student_id" style="shape=partialRectangle;html=1;whiteSpace=wrap;connectable=0;strokeColor=inherit;overflow=hidden;fillColor=none;top=0;left=0;bottom=0;right=0;pointerEvents=1;fontSize=16;" vertex="1" parent="S4k3JVe0y4lSv8z0l-nM-2">
          <mxGeometry x="272" width="171" height="40" as="geometry">
            <mxRectangle width="171" height="40" as="alternateBounds" />
          </mxGeometry>
        </mxCell>
        <mxCell id="S4k3JVe0y4lSv8z0l-nM-6" value="User" style="text;strokeColor=none;fillColor=none;html=1;fontSize=24;fontStyle=1;verticalAlign=middle;align=center;" vertex="1" parent="1">
          <mxGeometry x="676" y="120" width="51" height="40" as="geometry" />
        </mxCell>
        <mxCell id="S4k3JVe0y4lSv8z0l-nM-7" value="" style="shape=table;startSize=0;container=1;collapsible=0;childLayout=tableLayout;fontSize=16;" vertex="1" parent="1">
          <mxGeometry x="674" y="310" width="272" height="40" as="geometry" />
        </mxCell>
        <mxCell id="S4k3JVe0y4lSv8z0l-nM-8" value="" style="shape=tableRow;horizontal=0;startSize=0;swimlaneHead=0;swimlaneBody=0;strokeColor=inherit;top=0;left=0;bottom=0;right=0;collapsible=0;dropTarget=0;fillColor=none;points=[[0,0.5],[1,0.5]];portConstraint=eastwest;fontSize=16;" vertex="1" parent="S4k3JVe0y4lSv8z0l-nM-7">
          <mxGeometry width="272" height="40" as="geometry" />
        </mxCell>
        <mxCell id="S4k3JVe0y4lSv8z0l-nM-9" value="&lt;u&gt;r_username&lt;/u&gt;" style="shape=partialRectangle;html=1;whiteSpace=wrap;connectable=0;strokeColor=inherit;overflow=hidden;fillColor=none;top=0;left=0;bottom=0;right=0;pointerEvents=1;fontSize=16;" vertex="1" parent="S4k3JVe0y4lSv8z0l-nM-8">
          <mxGeometry width="132" height="40" as="geometry">
            <mxRectangle width="132" height="40" as="alternateBounds" />
          </mxGeometry>
        </mxCell>
        <mxCell id="S4k3JVe0y4lSv8z0l-nM-10" value="&lt;u&gt;role&lt;/u&gt;" style="shape=partialRectangle;html=1;whiteSpace=wrap;connectable=0;strokeColor=inherit;overflow=hidden;fillColor=none;top=0;left=0;bottom=0;right=0;pointerEvents=1;fontSize=16;" vertex="1" parent="S4k3JVe0y4lSv8z0l-nM-8">
          <mxGeometry x="132" width="140" height="40" as="geometry">
            <mxRectangle width="140" height="40" as="alternateBounds" />
          </mxGeometry>
        </mxCell>
        <mxCell id="S4k3JVe0y4lSv8z0l-nM-11" value="Roles" style="text;strokeColor=none;fillColor=none;html=1;fontSize=24;fontStyle=1;verticalAlign=middle;align=center;" vertex="1" parent="1">
          <mxGeometry x="674" y="270" width="62" height="40" as="geometry" />
        </mxCell>
        <mxCell id="S4k3JVe0y4lSv8z0l-nM-12" value="" style="edgeStyle=segmentEdgeStyle;endArrow=classic;html=1;curved=0;rounded=0;endSize=8;startSize=8;exitX=0.25;exitY=1;exitDx=0;exitDy=0;" edge="1" parent="1" source="S4k3JVe0y4lSv8z0l-nM-7">
          <mxGeometry width="50" height="50" relative="1" as="geometry">
            <mxPoint x="582" y="238" as="sourcePoint" />
            <mxPoint x="744" y="200" as="targetPoint" />
            <Array as="points">
              <mxPoint x="742" y="417" />
              <mxPoint x="630" y="417" />
              <mxPoint x="630" y="229" />
              <mxPoint x="744" y="229" />
            </Array>
          </mxGeometry>
        </mxCell>
      </root>
    </mxGraphModel>
  </diagram>
</mxfile>
